<mxfile host="app.diagrams.net" modified="2024-06-14T21:19:56.144Z" agent="Mozilla/5.0 (Windows NT 10.0; Win64; x64; rv:126.0) Gecko/20100101 Firefox/126.0" etag="KLr7lPfPms4mTXpRFRud" version="24.5.3" type="device">
  <diagram id="C5RBs43oDa-KdzZeNtuy" name="Page-1">
    <mxGraphModel dx="861" dy="547" grid="1" gridSize="10" guides="1" tooltips="1" connect="1" arrows="1" fold="1" page="1" pageScale="1" pageWidth="827" pageHeight="1169" math="0" shadow="0">
      <root>
        <mxCell id="WIyWlLk6GJQsqaUBKTNV-0" />
        <mxCell id="WIyWlLk6GJQsqaUBKTNV-1" parent="WIyWlLk6GJQsqaUBKTNV-0" />
        <mxCell id="xxgYEdGV7xC8CEJvG-r1-42" value="Équipe" style="shape=table;startSize=30;container=1;collapsible=1;childLayout=tableLayout;fixedRows=1;rowLines=0;fontStyle=1;align=center;resizeLast=1;html=1;" parent="WIyWlLk6GJQsqaUBKTNV-1" vertex="1">
          <mxGeometry x="1300" y="310" width="180" height="150" as="geometry" />
        </mxCell>
        <mxCell id="xxgYEdGV7xC8CEJvG-r1-43" value="" style="shape=tableRow;horizontal=0;startSize=0;swimlaneHead=0;swimlaneBody=0;fillColor=none;collapsible=0;dropTarget=0;points=[[0,0.5],[1,0.5]];portConstraint=eastwest;top=0;left=0;right=0;bottom=1;" parent="xxgYEdGV7xC8CEJvG-r1-42" vertex="1">
          <mxGeometry y="30" width="180" height="30" as="geometry" />
        </mxCell>
        <mxCell id="xxgYEdGV7xC8CEJvG-r1-44" value="PK" style="shape=partialRectangle;connectable=0;fillColor=none;top=0;left=0;bottom=0;right=0;fontStyle=1;overflow=hidden;whiteSpace=wrap;html=1;" parent="xxgYEdGV7xC8CEJvG-r1-43" vertex="1">
          <mxGeometry width="30" height="30" as="geometry">
            <mxRectangle width="30" height="30" as="alternateBounds" />
          </mxGeometry>
        </mxCell>
        <mxCell id="xxgYEdGV7xC8CEJvG-r1-45" value="IDEquipe" style="shape=partialRectangle;connectable=0;fillColor=none;top=0;left=0;bottom=0;right=0;align=left;spacingLeft=6;fontStyle=5;overflow=hidden;whiteSpace=wrap;html=1;" parent="xxgYEdGV7xC8CEJvG-r1-43" vertex="1">
          <mxGeometry x="30" width="150" height="30" as="geometry">
            <mxRectangle width="150" height="30" as="alternateBounds" />
          </mxGeometry>
        </mxCell>
        <mxCell id="K-hqVzBgMdyaoDgV30pU-75" value="" style="shape=tableRow;horizontal=0;startSize=0;swimlaneHead=0;swimlaneBody=0;fillColor=none;collapsible=0;dropTarget=0;points=[[0,0.5],[1,0.5]];portConstraint=eastwest;top=0;left=0;right=0;bottom=0;" vertex="1" parent="xxgYEdGV7xC8CEJvG-r1-42">
          <mxGeometry y="60" width="180" height="30" as="geometry" />
        </mxCell>
        <mxCell id="K-hqVzBgMdyaoDgV30pU-76" value="" style="shape=partialRectangle;connectable=0;fillColor=none;top=0;left=0;bottom=0;right=0;editable=1;overflow=hidden;" vertex="1" parent="K-hqVzBgMdyaoDgV30pU-75">
          <mxGeometry width="30" height="30" as="geometry">
            <mxRectangle width="30" height="30" as="alternateBounds" />
          </mxGeometry>
        </mxCell>
        <mxCell id="K-hqVzBgMdyaoDgV30pU-77" value="Nom" style="shape=partialRectangle;connectable=0;fillColor=none;top=0;left=0;bottom=0;right=0;align=left;spacingLeft=6;overflow=hidden;" vertex="1" parent="K-hqVzBgMdyaoDgV30pU-75">
          <mxGeometry x="30" width="150" height="30" as="geometry">
            <mxRectangle width="150" height="30" as="alternateBounds" />
          </mxGeometry>
        </mxCell>
        <mxCell id="xxgYEdGV7xC8CEJvG-r1-46" value="" style="shape=tableRow;horizontal=0;startSize=0;swimlaneHead=0;swimlaneBody=0;fillColor=none;collapsible=0;dropTarget=0;points=[[0,0.5],[1,0.5]];portConstraint=eastwest;top=0;left=0;right=0;bottom=0;" parent="xxgYEdGV7xC8CEJvG-r1-42" vertex="1">
          <mxGeometry y="90" width="180" height="30" as="geometry" />
        </mxCell>
        <mxCell id="xxgYEdGV7xC8CEJvG-r1-47" value="" style="shape=partialRectangle;connectable=0;fillColor=none;top=0;left=0;bottom=0;right=0;editable=1;overflow=hidden;whiteSpace=wrap;html=1;" parent="xxgYEdGV7xC8CEJvG-r1-46" vertex="1">
          <mxGeometry width="30" height="30" as="geometry">
            <mxRectangle width="30" height="30" as="alternateBounds" />
          </mxGeometry>
        </mxCell>
        <mxCell id="xxgYEdGV7xC8CEJvG-r1-48" value="Points" style="shape=partialRectangle;connectable=0;fillColor=none;top=0;left=0;bottom=0;right=0;align=left;spacingLeft=6;overflow=hidden;whiteSpace=wrap;html=1;" parent="xxgYEdGV7xC8CEJvG-r1-46" vertex="1">
          <mxGeometry x="30" width="150" height="30" as="geometry">
            <mxRectangle width="150" height="30" as="alternateBounds" />
          </mxGeometry>
        </mxCell>
        <mxCell id="K-hqVzBgMdyaoDgV30pU-69" value="" style="shape=tableRow;horizontal=0;startSize=0;swimlaneHead=0;swimlaneBody=0;fillColor=none;collapsible=0;dropTarget=0;points=[[0,0.5],[1,0.5]];portConstraint=eastwest;top=0;left=0;right=0;bottom=0;" vertex="1" parent="xxgYEdGV7xC8CEJvG-r1-42">
          <mxGeometry y="120" width="180" height="30" as="geometry" />
        </mxCell>
        <mxCell id="K-hqVzBgMdyaoDgV30pU-70" value="FK" style="shape=partialRectangle;connectable=0;fillColor=none;top=0;left=0;bottom=0;right=0;fontStyle=0;overflow=hidden;whiteSpace=wrap;html=1;" vertex="1" parent="K-hqVzBgMdyaoDgV30pU-69">
          <mxGeometry width="30" height="30" as="geometry">
            <mxRectangle width="30" height="30" as="alternateBounds" />
          </mxGeometry>
        </mxCell>
        <mxCell id="K-hqVzBgMdyaoDgV30pU-71" value="IDPartie" style="shape=partialRectangle;connectable=0;fillColor=none;top=0;left=0;bottom=0;right=0;align=left;spacingLeft=6;fontStyle=0;overflow=hidden;whiteSpace=wrap;html=1;" vertex="1" parent="K-hqVzBgMdyaoDgV30pU-69">
          <mxGeometry x="30" width="150" height="30" as="geometry">
            <mxRectangle width="150" height="30" as="alternateBounds" />
          </mxGeometry>
        </mxCell>
        <mxCell id="xxgYEdGV7xC8CEJvG-r1-55" value="Partie" style="shape=table;startSize=30;container=1;collapsible=1;childLayout=tableLayout;fixedRows=1;rowLines=0;fontStyle=1;align=center;resizeLast=1;html=1;" parent="WIyWlLk6GJQsqaUBKTNV-1" vertex="1">
          <mxGeometry x="880" y="640" width="180" height="120" as="geometry" />
        </mxCell>
        <mxCell id="xxgYEdGV7xC8CEJvG-r1-56" value="" style="shape=tableRow;horizontal=0;startSize=0;swimlaneHead=0;swimlaneBody=0;fillColor=none;collapsible=0;dropTarget=0;points=[[0,0.5],[1,0.5]];portConstraint=eastwest;top=0;left=0;right=0;bottom=1;" parent="xxgYEdGV7xC8CEJvG-r1-55" vertex="1">
          <mxGeometry y="30" width="180" height="30" as="geometry" />
        </mxCell>
        <mxCell id="xxgYEdGV7xC8CEJvG-r1-57" value="PK" style="shape=partialRectangle;connectable=0;fillColor=none;top=0;left=0;bottom=0;right=0;fontStyle=1;overflow=hidden;whiteSpace=wrap;html=1;" parent="xxgYEdGV7xC8CEJvG-r1-56" vertex="1">
          <mxGeometry width="30" height="30" as="geometry">
            <mxRectangle width="30" height="30" as="alternateBounds" />
          </mxGeometry>
        </mxCell>
        <mxCell id="xxgYEdGV7xC8CEJvG-r1-58" value="IDPartie" style="shape=partialRectangle;connectable=0;fillColor=none;top=0;left=0;bottom=0;right=0;align=left;spacingLeft=6;fontStyle=5;overflow=hidden;whiteSpace=wrap;html=1;" parent="xxgYEdGV7xC8CEJvG-r1-56" vertex="1">
          <mxGeometry x="30" width="150" height="30" as="geometry">
            <mxRectangle width="150" height="30" as="alternateBounds" />
          </mxGeometry>
        </mxCell>
        <mxCell id="xxgYEdGV7xC8CEJvG-r1-59" value="" style="shape=tableRow;horizontal=0;startSize=0;swimlaneHead=0;swimlaneBody=0;fillColor=none;collapsible=0;dropTarget=0;points=[[0,0.5],[1,0.5]];portConstraint=eastwest;top=0;left=0;right=0;bottom=0;" parent="xxgYEdGV7xC8CEJvG-r1-55" vertex="1">
          <mxGeometry y="60" width="180" height="30" as="geometry" />
        </mxCell>
        <mxCell id="xxgYEdGV7xC8CEJvG-r1-60" value="" style="shape=partialRectangle;connectable=0;fillColor=none;top=0;left=0;bottom=0;right=0;editable=1;overflow=hidden;whiteSpace=wrap;html=1;" parent="xxgYEdGV7xC8CEJvG-r1-59" vertex="1">
          <mxGeometry width="30" height="30" as="geometry">
            <mxRectangle width="30" height="30" as="alternateBounds" />
          </mxGeometry>
        </mxCell>
        <mxCell id="xxgYEdGV7xC8CEJvG-r1-61" value="État" style="shape=partialRectangle;connectable=0;fillColor=none;top=0;left=0;bottom=0;right=0;align=left;spacingLeft=6;overflow=hidden;whiteSpace=wrap;html=1;" parent="xxgYEdGV7xC8CEJvG-r1-59" vertex="1">
          <mxGeometry x="30" width="150" height="30" as="geometry">
            <mxRectangle width="150" height="30" as="alternateBounds" />
          </mxGeometry>
        </mxCell>
        <mxCell id="K-hqVzBgMdyaoDgV30pU-72" value="" style="shape=tableRow;horizontal=0;startSize=0;swimlaneHead=0;swimlaneBody=0;fillColor=none;collapsible=0;dropTarget=0;points=[[0,0.5],[1,0.5]];portConstraint=eastwest;top=0;left=0;right=0;bottom=0;" vertex="1" parent="xxgYEdGV7xC8CEJvG-r1-55">
          <mxGeometry y="90" width="180" height="30" as="geometry" />
        </mxCell>
        <mxCell id="K-hqVzBgMdyaoDgV30pU-73" value="" style="shape=partialRectangle;connectable=0;fillColor=none;top=0;left=0;bottom=0;right=0;editable=1;overflow=hidden;" vertex="1" parent="K-hqVzBgMdyaoDgV30pU-72">
          <mxGeometry width="30" height="30" as="geometry">
            <mxRectangle width="30" height="30" as="alternateBounds" />
          </mxGeometry>
        </mxCell>
        <mxCell id="K-hqVzBgMdyaoDgV30pU-74" value="Code" style="shape=partialRectangle;connectable=0;fillColor=none;top=0;left=0;bottom=0;right=0;align=left;spacingLeft=6;overflow=hidden;" vertex="1" parent="K-hqVzBgMdyaoDgV30pU-72">
          <mxGeometry x="30" width="150" height="30" as="geometry">
            <mxRectangle width="150" height="30" as="alternateBounds" />
          </mxGeometry>
        </mxCell>
        <mxCell id="xxgYEdGV7xC8CEJvG-r1-101" value="" style="endArrow=classic;html=1;rounded=0;exitX=0.5;exitY=0;exitDx=0;exitDy=0;" parent="WIyWlLk6GJQsqaUBKTNV-1" source="xxgYEdGV7xC8CEJvG-r1-55" edge="1">
          <mxGeometry relative="1" as="geometry">
            <mxPoint x="967" y="600" as="sourcePoint" />
            <mxPoint x="970" y="440" as="targetPoint" />
          </mxGeometry>
        </mxCell>
        <mxCell id="xxgYEdGV7xC8CEJvG-r1-103" value="1,N" style="edgeLabel;resizable=0;html=1;;align=left;verticalAlign=bottom;" parent="xxgYEdGV7xC8CEJvG-r1-101" connectable="0" vertex="1">
          <mxGeometry x="-1" relative="1" as="geometry" />
        </mxCell>
        <mxCell id="xxgYEdGV7xC8CEJvG-r1-104" value="1,1" style="edgeLabel;resizable=0;html=1;;align=right;verticalAlign=bottom;" parent="xxgYEdGV7xC8CEJvG-r1-101" connectable="0" vertex="1">
          <mxGeometry x="1" relative="1" as="geometry">
            <mxPoint x="-10" y="20" as="offset" />
          </mxGeometry>
        </mxCell>
        <mxCell id="xxgYEdGV7xC8CEJvG-r1-105" value="" style="endArrow=classic;html=1;rounded=0;exitX=0;exitY=0.5;exitDx=0;exitDy=0;" parent="WIyWlLk6GJQsqaUBKTNV-1" source="xxgYEdGV7xC8CEJvG-r1-43" edge="1">
          <mxGeometry relative="1" as="geometry">
            <mxPoint x="1207" y="340" as="sourcePoint" />
            <mxPoint x="1063" y="352" as="targetPoint" />
          </mxGeometry>
        </mxCell>
        <mxCell id="xxgYEdGV7xC8CEJvG-r1-107" value="1,N" style="edgeLabel;resizable=0;html=1;;align=left;verticalAlign=bottom;" parent="xxgYEdGV7xC8CEJvG-r1-105" connectable="0" vertex="1">
          <mxGeometry x="-1" relative="1" as="geometry">
            <mxPoint x="-37" y="21" as="offset" />
          </mxGeometry>
        </mxCell>
        <mxCell id="xxgYEdGV7xC8CEJvG-r1-108" value="1,1" style="edgeLabel;resizable=0;html=1;;align=right;verticalAlign=bottom;" parent="xxgYEdGV7xC8CEJvG-r1-105" connectable="0" vertex="1">
          <mxGeometry x="1" relative="1" as="geometry">
            <mxPoint x="40" as="offset" />
          </mxGeometry>
        </mxCell>
        <mxCell id="K-hqVzBgMdyaoDgV30pU-0" value="" style="endArrow=classic;html=1;rounded=0;fontSize=12;startSize=8;endSize=8;curved=1;exitX=0.5;exitY=1;exitDx=0;exitDy=0;entryX=1;entryY=0.5;entryDx=0;entryDy=0;" edge="1" parent="WIyWlLk6GJQsqaUBKTNV-1" source="xxgYEdGV7xC8CEJvG-r1-42" target="xxgYEdGV7xC8CEJvG-r1-56">
          <mxGeometry relative="1" as="geometry">
            <mxPoint x="1010" y="480" as="sourcePoint" />
            <mxPoint x="1170" y="480" as="targetPoint" />
          </mxGeometry>
        </mxCell>
        <mxCell id="K-hqVzBgMdyaoDgV30pU-2" value="1,1" style="edgeLabel;resizable=0;html=1;fontSize=12;;align=left;verticalAlign=bottom;" connectable="0" vertex="1" parent="K-hqVzBgMdyaoDgV30pU-0">
          <mxGeometry x="-1" relative="1" as="geometry">
            <mxPoint x="4" y="30" as="offset" />
          </mxGeometry>
        </mxCell>
        <mxCell id="K-hqVzBgMdyaoDgV30pU-3" value="&lt;div&gt;0,n&lt;/div&gt;" style="edgeLabel;resizable=0;html=1;fontSize=12;;align=right;verticalAlign=bottom;" connectable="0" vertex="1" parent="K-hqVzBgMdyaoDgV30pU-0">
          <mxGeometry x="1" relative="1" as="geometry">
            <mxPoint x="60" y="-5" as="offset" />
          </mxGeometry>
        </mxCell>
        <mxCell id="xxgYEdGV7xC8CEJvG-r1-71" value="Carte" style="shape=table;startSize=30;container=1;collapsible=1;childLayout=tableLayout;fixedRows=1;rowLines=0;fontStyle=1;align=center;resizeLast=1;html=1;" parent="WIyWlLk6GJQsqaUBKTNV-1" vertex="1">
          <mxGeometry x="560" y="340" width="180" height="90" as="geometry" />
        </mxCell>
        <mxCell id="xxgYEdGV7xC8CEJvG-r1-72" value="" style="shape=tableRow;horizontal=0;startSize=0;swimlaneHead=0;swimlaneBody=0;fillColor=none;collapsible=0;dropTarget=0;points=[[0,0.5],[1,0.5]];portConstraint=eastwest;top=0;left=0;right=0;bottom=1;" parent="xxgYEdGV7xC8CEJvG-r1-71" vertex="1">
          <mxGeometry y="30" width="180" height="30" as="geometry" />
        </mxCell>
        <mxCell id="xxgYEdGV7xC8CEJvG-r1-73" value="PK" style="shape=partialRectangle;connectable=0;fillColor=none;top=0;left=0;bottom=0;right=0;fontStyle=1;overflow=hidden;whiteSpace=wrap;html=1;" parent="xxgYEdGV7xC8CEJvG-r1-72" vertex="1">
          <mxGeometry width="30" height="30" as="geometry">
            <mxRectangle width="30" height="30" as="alternateBounds" />
          </mxGeometry>
        </mxCell>
        <mxCell id="xxgYEdGV7xC8CEJvG-r1-74" value="&lt;div&gt;IDCarte&lt;/div&gt;" style="shape=partialRectangle;connectable=0;fillColor=none;top=0;left=0;bottom=0;right=0;align=left;spacingLeft=6;fontStyle=5;overflow=hidden;whiteSpace=wrap;html=1;" parent="xxgYEdGV7xC8CEJvG-r1-72" vertex="1">
          <mxGeometry x="30" width="150" height="30" as="geometry">
            <mxRectangle width="150" height="30" as="alternateBounds" />
          </mxGeometry>
        </mxCell>
        <mxCell id="xxgYEdGV7xC8CEJvG-r1-75" value="" style="shape=tableRow;horizontal=0;startSize=0;swimlaneHead=0;swimlaneBody=0;fillColor=none;collapsible=0;dropTarget=0;points=[[0,0.5],[1,0.5]];portConstraint=eastwest;top=0;left=0;right=0;bottom=0;" parent="xxgYEdGV7xC8CEJvG-r1-71" vertex="1">
          <mxGeometry y="60" width="180" height="30" as="geometry" />
        </mxCell>
        <mxCell id="xxgYEdGV7xC8CEJvG-r1-76" value="" style="shape=partialRectangle;connectable=0;fillColor=none;top=0;left=0;bottom=0;right=0;editable=1;overflow=hidden;whiteSpace=wrap;html=1;" parent="xxgYEdGV7xC8CEJvG-r1-75" vertex="1">
          <mxGeometry width="30" height="30" as="geometry">
            <mxRectangle width="30" height="30" as="alternateBounds" />
          </mxGeometry>
        </mxCell>
        <mxCell id="xxgYEdGV7xC8CEJvG-r1-77" value="Nom" style="shape=partialRectangle;connectable=0;fillColor=none;top=0;left=0;bottom=0;right=0;align=left;spacingLeft=6;overflow=hidden;whiteSpace=wrap;html=1;" parent="xxgYEdGV7xC8CEJvG-r1-75" vertex="1">
          <mxGeometry x="30" width="150" height="30" as="geometry">
            <mxRectangle width="150" height="30" as="alternateBounds" />
          </mxGeometry>
        </mxCell>
        <mxCell id="K-hqVzBgMdyaoDgV30pU-11" value="" style="endArrow=classic;html=1;rounded=0;fontSize=12;startSize=8;endSize=8;curved=1;exitX=0.5;exitY=1;exitDx=0;exitDy=0;entryX=0.5;entryY=0;entryDx=0;entryDy=0;" edge="1" parent="WIyWlLk6GJQsqaUBKTNV-1" source="xxgYEdGV7xC8CEJvG-r1-71">
          <mxGeometry relative="1" as="geometry">
            <mxPoint x="570" y="510" as="sourcePoint" />
            <mxPoint x="650" y="640" as="targetPoint" />
          </mxGeometry>
        </mxCell>
        <mxCell id="K-hqVzBgMdyaoDgV30pU-13" value="0,n" style="edgeLabel;resizable=0;html=1;fontSize=12;;align=left;verticalAlign=bottom;" connectable="0" vertex="1" parent="K-hqVzBgMdyaoDgV30pU-11">
          <mxGeometry x="-1" relative="1" as="geometry">
            <mxPoint y="20" as="offset" />
          </mxGeometry>
        </mxCell>
        <mxCell id="K-hqVzBgMdyaoDgV30pU-14" value="1,1" style="edgeLabel;resizable=0;html=1;fontSize=12;;align=right;verticalAlign=bottom;" connectable="0" vertex="1" parent="K-hqVzBgMdyaoDgV30pU-11">
          <mxGeometry x="1" relative="1" as="geometry">
            <mxPoint x="-10" as="offset" />
          </mxGeometry>
        </mxCell>
        <mxCell id="K-hqVzBgMdyaoDgV30pU-15" value="" style="endArrow=classic;html=1;rounded=0;fontSize=12;startSize=8;endSize=8;curved=1;exitX=1;exitY=0.5;exitDx=0;exitDy=0;entryX=0;entryY=0.5;entryDx=0;entryDy=0;" edge="1" parent="WIyWlLk6GJQsqaUBKTNV-1" target="xxgYEdGV7xC8CEJvG-r1-56">
          <mxGeometry relative="1" as="geometry">
            <mxPoint x="740" y="685" as="sourcePoint" />
            <mxPoint x="870" y="790" as="targetPoint" />
          </mxGeometry>
        </mxCell>
        <mxCell id="K-hqVzBgMdyaoDgV30pU-16" value="Label" style="edgeLabel;resizable=0;html=1;fontSize=12;;align=center;verticalAlign=middle;" connectable="0" vertex="1" parent="K-hqVzBgMdyaoDgV30pU-15">
          <mxGeometry relative="1" as="geometry" />
        </mxCell>
        <mxCell id="K-hqVzBgMdyaoDgV30pU-17" value="1,1" style="edgeLabel;resizable=0;html=1;fontSize=12;;align=left;verticalAlign=bottom;" connectable="0" vertex="1" parent="K-hqVzBgMdyaoDgV30pU-15">
          <mxGeometry x="-1" relative="1" as="geometry" />
        </mxCell>
        <mxCell id="K-hqVzBgMdyaoDgV30pU-18" value="0,n" style="edgeLabel;resizable=0;html=1;fontSize=12;;align=right;verticalAlign=bottom;" connectable="0" vertex="1" parent="K-hqVzBgMdyaoDgV30pU-15">
          <mxGeometry x="1" relative="1" as="geometry">
            <mxPoint x="-10" as="offset" />
          </mxGeometry>
        </mxCell>
        <mxCell id="K-hqVzBgMdyaoDgV30pU-19" value="Carte Jouée" style="shape=table;startSize=30;container=1;collapsible=1;childLayout=tableLayout;fixedRows=1;rowLines=0;fontStyle=1;align=center;resizeLast=1;html=1;whiteSpace=wrap;" vertex="1" parent="WIyWlLk6GJQsqaUBKTNV-1">
          <mxGeometry x="560" y="640" width="180" height="150" as="geometry" />
        </mxCell>
        <mxCell id="K-hqVzBgMdyaoDgV30pU-20" value="" style="shape=tableRow;horizontal=0;startSize=0;swimlaneHead=0;swimlaneBody=0;fillColor=none;collapsible=0;dropTarget=0;points=[[0,0.5],[1,0.5]];portConstraint=eastwest;top=0;left=0;right=0;bottom=0;html=1;" vertex="1" parent="K-hqVzBgMdyaoDgV30pU-19">
          <mxGeometry y="30" width="180" height="30" as="geometry" />
        </mxCell>
        <mxCell id="K-hqVzBgMdyaoDgV30pU-21" value="PK,FK1" style="shape=partialRectangle;connectable=0;fillColor=none;top=0;left=0;bottom=0;right=0;fontStyle=1;overflow=hidden;html=1;whiteSpace=wrap;" vertex="1" parent="K-hqVzBgMdyaoDgV30pU-20">
          <mxGeometry width="60" height="30" as="geometry">
            <mxRectangle width="60" height="30" as="alternateBounds" />
          </mxGeometry>
        </mxCell>
        <mxCell id="K-hqVzBgMdyaoDgV30pU-22" value="IDCarte" style="shape=partialRectangle;connectable=0;fillColor=none;top=0;left=0;bottom=0;right=0;align=left;spacingLeft=6;fontStyle=5;overflow=hidden;html=1;whiteSpace=wrap;" vertex="1" parent="K-hqVzBgMdyaoDgV30pU-20">
          <mxGeometry x="60" width="120" height="30" as="geometry">
            <mxRectangle width="120" height="30" as="alternateBounds" />
          </mxGeometry>
        </mxCell>
        <mxCell id="K-hqVzBgMdyaoDgV30pU-23" value="" style="shape=tableRow;horizontal=0;startSize=0;swimlaneHead=0;swimlaneBody=0;fillColor=none;collapsible=0;dropTarget=0;points=[[0,0.5],[1,0.5]];portConstraint=eastwest;top=0;left=0;right=0;bottom=1;html=1;" vertex="1" parent="K-hqVzBgMdyaoDgV30pU-19">
          <mxGeometry y="60" width="180" height="30" as="geometry" />
        </mxCell>
        <mxCell id="K-hqVzBgMdyaoDgV30pU-24" value="PK,FK2" style="shape=partialRectangle;connectable=0;fillColor=none;top=0;left=0;bottom=0;right=0;fontStyle=1;overflow=hidden;html=1;whiteSpace=wrap;" vertex="1" parent="K-hqVzBgMdyaoDgV30pU-23">
          <mxGeometry width="60" height="30" as="geometry">
            <mxRectangle width="60" height="30" as="alternateBounds" />
          </mxGeometry>
        </mxCell>
        <mxCell id="K-hqVzBgMdyaoDgV30pU-25" value="IDPartie" style="shape=partialRectangle;connectable=0;fillColor=none;top=0;left=0;bottom=0;right=0;align=left;spacingLeft=6;fontStyle=5;overflow=hidden;html=1;whiteSpace=wrap;" vertex="1" parent="K-hqVzBgMdyaoDgV30pU-23">
          <mxGeometry x="60" width="120" height="30" as="geometry">
            <mxRectangle width="120" height="30" as="alternateBounds" />
          </mxGeometry>
        </mxCell>
        <mxCell id="K-hqVzBgMdyaoDgV30pU-26" value="" style="shape=tableRow;horizontal=0;startSize=0;swimlaneHead=0;swimlaneBody=0;fillColor=none;collapsible=0;dropTarget=0;points=[[0,0.5],[1,0.5]];portConstraint=eastwest;top=0;left=0;right=0;bottom=0;html=1;" vertex="1" parent="K-hqVzBgMdyaoDgV30pU-19">
          <mxGeometry y="90" width="180" height="30" as="geometry" />
        </mxCell>
        <mxCell id="K-hqVzBgMdyaoDgV30pU-27" value="" style="shape=partialRectangle;connectable=0;fillColor=none;top=0;left=0;bottom=0;right=0;editable=1;overflow=hidden;html=1;whiteSpace=wrap;" vertex="1" parent="K-hqVzBgMdyaoDgV30pU-26">
          <mxGeometry width="60" height="30" as="geometry">
            <mxRectangle width="60" height="30" as="alternateBounds" />
          </mxGeometry>
        </mxCell>
        <mxCell id="K-hqVzBgMdyaoDgV30pU-28" value="Couleur" style="shape=partialRectangle;connectable=0;fillColor=none;top=0;left=0;bottom=0;right=0;align=left;spacingLeft=6;overflow=hidden;html=1;whiteSpace=wrap;" vertex="1" parent="K-hqVzBgMdyaoDgV30pU-26">
          <mxGeometry x="60" width="120" height="30" as="geometry">
            <mxRectangle width="120" height="30" as="alternateBounds" />
          </mxGeometry>
        </mxCell>
        <mxCell id="K-hqVzBgMdyaoDgV30pU-29" value="" style="shape=tableRow;horizontal=0;startSize=0;swimlaneHead=0;swimlaneBody=0;fillColor=none;collapsible=0;dropTarget=0;points=[[0,0.5],[1,0.5]];portConstraint=eastwest;top=0;left=0;right=0;bottom=0;html=1;" vertex="1" parent="K-hqVzBgMdyaoDgV30pU-19">
          <mxGeometry y="120" width="180" height="30" as="geometry" />
        </mxCell>
        <mxCell id="K-hqVzBgMdyaoDgV30pU-30" value="" style="shape=partialRectangle;connectable=0;fillColor=none;top=0;left=0;bottom=0;right=0;editable=1;overflow=hidden;html=1;whiteSpace=wrap;" vertex="1" parent="K-hqVzBgMdyaoDgV30pU-29">
          <mxGeometry width="60" height="30" as="geometry">
            <mxRectangle width="60" height="30" as="alternateBounds" />
          </mxGeometry>
        </mxCell>
        <mxCell id="K-hqVzBgMdyaoDgV30pU-31" value="" style="shape=partialRectangle;connectable=0;fillColor=none;top=0;left=0;bottom=0;right=0;align=left;spacingLeft=6;overflow=hidden;html=1;whiteSpace=wrap;" vertex="1" parent="K-hqVzBgMdyaoDgV30pU-29">
          <mxGeometry x="60" width="120" height="30" as="geometry">
            <mxRectangle width="120" height="30" as="alternateBounds" />
          </mxGeometry>
        </mxCell>
        <mxCell id="K-hqVzBgMdyaoDgV30pU-33" value="Joueur" style="shape=table;startSize=30;container=1;collapsible=1;childLayout=tableLayout;fixedRows=1;rowLines=0;fontStyle=1;align=center;resizeLast=1;html=1;" vertex="1" parent="WIyWlLk6GJQsqaUBKTNV-1">
          <mxGeometry x="880" y="265" width="180" height="180" as="geometry" />
        </mxCell>
        <mxCell id="K-hqVzBgMdyaoDgV30pU-34" value="" style="shape=tableRow;horizontal=0;startSize=0;swimlaneHead=0;swimlaneBody=0;fillColor=none;collapsible=0;dropTarget=0;points=[[0,0.5],[1,0.5]];portConstraint=eastwest;top=0;left=0;right=0;bottom=1;" vertex="1" parent="K-hqVzBgMdyaoDgV30pU-33">
          <mxGeometry y="30" width="180" height="30" as="geometry" />
        </mxCell>
        <mxCell id="K-hqVzBgMdyaoDgV30pU-35" value="PK" style="shape=partialRectangle;connectable=0;fillColor=none;top=0;left=0;bottom=0;right=0;fontStyle=1;overflow=hidden;whiteSpace=wrap;html=1;" vertex="1" parent="K-hqVzBgMdyaoDgV30pU-34">
          <mxGeometry width="30" height="30" as="geometry">
            <mxRectangle width="30" height="30" as="alternateBounds" />
          </mxGeometry>
        </mxCell>
        <mxCell id="K-hqVzBgMdyaoDgV30pU-36" value="IDJoueur" style="shape=partialRectangle;connectable=0;fillColor=none;top=0;left=0;bottom=0;right=0;align=left;spacingLeft=6;fontStyle=5;overflow=hidden;whiteSpace=wrap;html=1;" vertex="1" parent="K-hqVzBgMdyaoDgV30pU-34">
          <mxGeometry x="30" width="150" height="30" as="geometry">
            <mxRectangle width="150" height="30" as="alternateBounds" />
          </mxGeometry>
        </mxCell>
        <mxCell id="K-hqVzBgMdyaoDgV30pU-37" value="" style="shape=tableRow;horizontal=0;startSize=0;swimlaneHead=0;swimlaneBody=0;fillColor=none;collapsible=0;dropTarget=0;points=[[0,0.5],[1,0.5]];portConstraint=eastwest;top=0;left=0;right=0;bottom=0;" vertex="1" parent="K-hqVzBgMdyaoDgV30pU-33">
          <mxGeometry y="60" width="180" height="30" as="geometry" />
        </mxCell>
        <mxCell id="K-hqVzBgMdyaoDgV30pU-38" value="" style="shape=partialRectangle;connectable=0;fillColor=none;top=0;left=0;bottom=0;right=0;editable=1;overflow=hidden;whiteSpace=wrap;html=1;" vertex="1" parent="K-hqVzBgMdyaoDgV30pU-37">
          <mxGeometry width="30" height="30" as="geometry">
            <mxRectangle width="30" height="30" as="alternateBounds" />
          </mxGeometry>
        </mxCell>
        <mxCell id="K-hqVzBgMdyaoDgV30pU-39" value="Pseudo" style="shape=partialRectangle;connectable=0;fillColor=none;top=0;left=0;bottom=0;right=0;align=left;spacingLeft=6;overflow=hidden;whiteSpace=wrap;html=1;" vertex="1" parent="K-hqVzBgMdyaoDgV30pU-37">
          <mxGeometry x="30" width="150" height="30" as="geometry">
            <mxRectangle width="150" height="30" as="alternateBounds" />
          </mxGeometry>
        </mxCell>
        <mxCell id="K-hqVzBgMdyaoDgV30pU-40" value="" style="shape=tableRow;horizontal=0;startSize=0;swimlaneHead=0;swimlaneBody=0;fillColor=none;collapsible=0;dropTarget=0;points=[[0,0.5],[1,0.5]];portConstraint=eastwest;top=0;left=0;right=0;bottom=0;" vertex="1" parent="K-hqVzBgMdyaoDgV30pU-33">
          <mxGeometry y="90" width="180" height="30" as="geometry" />
        </mxCell>
        <mxCell id="K-hqVzBgMdyaoDgV30pU-41" value="FK" style="shape=partialRectangle;connectable=0;fillColor=none;top=0;left=0;bottom=0;right=0;editable=1;overflow=hidden;whiteSpace=wrap;html=1;" vertex="1" parent="K-hqVzBgMdyaoDgV30pU-40">
          <mxGeometry width="30" height="30" as="geometry">
            <mxRectangle width="30" height="30" as="alternateBounds" />
          </mxGeometry>
        </mxCell>
        <mxCell id="K-hqVzBgMdyaoDgV30pU-42" value="IDEquipe" style="shape=partialRectangle;connectable=0;fillColor=none;top=0;left=0;bottom=0;right=0;align=left;spacingLeft=6;overflow=hidden;whiteSpace=wrap;html=1;" vertex="1" parent="K-hqVzBgMdyaoDgV30pU-40">
          <mxGeometry x="30" width="150" height="30" as="geometry">
            <mxRectangle width="150" height="30" as="alternateBounds" />
          </mxGeometry>
        </mxCell>
        <mxCell id="K-hqVzBgMdyaoDgV30pU-43" value="" style="shape=tableRow;horizontal=0;startSize=0;swimlaneHead=0;swimlaneBody=0;fillColor=none;collapsible=0;dropTarget=0;points=[[0,0.5],[1,0.5]];portConstraint=eastwest;top=0;left=0;right=0;bottom=0;" vertex="1" parent="K-hqVzBgMdyaoDgV30pU-33">
          <mxGeometry y="120" width="180" height="30" as="geometry" />
        </mxCell>
        <mxCell id="K-hqVzBgMdyaoDgV30pU-44" value="" style="shape=partialRectangle;connectable=0;fillColor=none;top=0;left=0;bottom=0;right=0;editable=1;overflow=hidden;whiteSpace=wrap;html=1;" vertex="1" parent="K-hqVzBgMdyaoDgV30pU-43">
          <mxGeometry width="30" height="30" as="geometry">
            <mxRectangle width="30" height="30" as="alternateBounds" />
          </mxGeometry>
        </mxCell>
        <mxCell id="K-hqVzBgMdyaoDgV30pU-45" value="Rôle" style="shape=partialRectangle;connectable=0;fillColor=none;top=0;left=0;bottom=0;right=0;align=left;spacingLeft=6;overflow=hidden;whiteSpace=wrap;html=1;" vertex="1" parent="K-hqVzBgMdyaoDgV30pU-43">
          <mxGeometry x="30" width="150" height="30" as="geometry">
            <mxRectangle width="150" height="30" as="alternateBounds" />
          </mxGeometry>
        </mxCell>
        <mxCell id="K-hqVzBgMdyaoDgV30pU-66" value="" style="shape=tableRow;horizontal=0;startSize=0;swimlaneHead=0;swimlaneBody=0;fillColor=none;collapsible=0;dropTarget=0;points=[[0,0.5],[1,0.5]];portConstraint=eastwest;top=0;left=0;right=0;bottom=0;" vertex="1" parent="K-hqVzBgMdyaoDgV30pU-33">
          <mxGeometry y="150" width="180" height="30" as="geometry" />
        </mxCell>
        <mxCell id="K-hqVzBgMdyaoDgV30pU-67" value="FK" style="shape=partialRectangle;connectable=0;fillColor=none;top=0;left=0;bottom=0;right=0;fontStyle=0;overflow=hidden;whiteSpace=wrap;html=1;" vertex="1" parent="K-hqVzBgMdyaoDgV30pU-66">
          <mxGeometry width="30" height="30" as="geometry">
            <mxRectangle width="30" height="30" as="alternateBounds" />
          </mxGeometry>
        </mxCell>
        <mxCell id="K-hqVzBgMdyaoDgV30pU-68" value="IDPartie" style="shape=partialRectangle;connectable=0;fillColor=none;top=0;left=0;bottom=0;right=0;align=left;spacingLeft=6;fontStyle=0;overflow=hidden;whiteSpace=wrap;html=1;" vertex="1" parent="K-hqVzBgMdyaoDgV30pU-66">
          <mxGeometry x="30" width="150" height="30" as="geometry">
            <mxRectangle width="150" height="30" as="alternateBounds" />
          </mxGeometry>
        </mxCell>
        <mxCell id="K-hqVzBgMdyaoDgV30pU-78" value="Détermine" style="ellipse;whiteSpace=wrap;html=1;align=center;" vertex="1" parent="WIyWlLk6GJQsqaUBKTNV-1">
          <mxGeometry x="600" y="510" width="100" height="40" as="geometry" />
        </mxCell>
        <mxCell id="K-hqVzBgMdyaoDgV30pU-79" value="Appartient" style="ellipse;whiteSpace=wrap;html=1;align=center;" vertex="1" parent="WIyWlLk6GJQsqaUBKTNV-1">
          <mxGeometry x="920" y="510" width="100" height="40" as="geometry" />
        </mxCell>
        <mxCell id="K-hqVzBgMdyaoDgV30pU-80" value="Appartient" style="ellipse;whiteSpace=wrap;html=1;align=center;" vertex="1" parent="WIyWlLk6GJQsqaUBKTNV-1">
          <mxGeometry x="1241" y="510" width="100" height="40" as="geometry" />
        </mxCell>
        <mxCell id="K-hqVzBgMdyaoDgV30pU-81" value="Appartient" style="ellipse;whiteSpace=wrap;html=1;align=center;" vertex="1" parent="WIyWlLk6GJQsqaUBKTNV-1">
          <mxGeometry x="1130" y="335" width="100" height="40" as="geometry" />
        </mxCell>
      </root>
    </mxGraphModel>
  </diagram>
</mxfile>
